<svg height="480pt" viewBox="0 0 480.00553 480" width="480pt" xmlns="http://www.w3.org/2000/svg"><path d="m96.003906 144.003906c0 79.527344 64.46875 144 144 144 79.527344 0 144-64.472656 144-144 0-79.53125-64.472656-143.99999975-144-143.99999975-79.492187.08984375-143.910156 64.50781275-144 143.99999975zm272 0c0 70.691406-57.308594 128-128 128-70.695312 0-128-57.308594-128-128 0-70.695312 57.304688-128 128-128 70.65625.082032 127.914063 57.339844 128 128zm0 0"/><path d="m412.148438 311.914062c-41.070313-25.023437-93.640626-20.429687-129.746094 11.335938l-5.441406 4.753906h-88.957032c-12.65625 0-24.382812 6.648438-30.882812 17.507813-6.503906 10.859375-6.824219 24.335937-.847656 35.492187l-97.277344-51.199218c-12.476563-6.566407-27.476563-6.128907-39.542969 1.15625-12.070313 7.285156-19.4453125 20.351562-19.44921875 34.449218.02343755 14.355469 7.66796875 27.617188 20.07812475 34.832032l113.601563 65.761718c15.835937 9.164063 33.804687 13.992188 52.101562 14h294.21875v-16h-64v-136h64v-16h-67.746094zm-270.449219 140.25-113.601563-65.761718c-7.480468-4.347656-12.085937-12.339844-12.09375-20.992188-.023437-8.5 4.417969-16.390625 11.695313-20.785156 7.277343-4.394531 16.328125-4.648438 23.839843-.671875l104.734376 55.128906c1.152343.601563 2.429687.917969 3.730468.921875h120c4.417969 0 8-3.582031 8-8 0-4.417968-3.582031-8-8-8h-92c-11.046875 0-20-8.957031-20-20 0-11.046875 8.953125-20 20-20h92c1.933594 0 3.804688-.703125 5.261719-1.976562l7.695313-6.738282c29.636718-26.058593 72.402343-30.816406 107.042968-11.902343v140.617187h-214.21875c-15.480468-.007812-30.683594-4.089844-44.085937-11.839844zm0 0"/><path d="m432.003906 422.753906c0 13.253906 10.742188 24 24 24 13.253906 0 24-10.746094 24-24s-10.746094-24-24-24c-13.257812 0-24 10.746094-24 24zm32 0c0 4.417969-3.582031 8-8 8-4.417968 0-8-3.582031-8-8 0-4.417968 3.582032-8 8-8 4.417969 0 8 3.582032 8 8zm0 0"/><path d="m240.003906 32.003906c-61.828125.066406-111.933594 50.171875-112 112h16c.054688-52.996094 43.003906-95.945312 96-96zm0 0"/><path d="m240.003906 256.003906c61.828125-.066406 111.933594-50.171875 112-112h-16c-.058594 52.996094-43.003906 95.941406-96 96zm0 0"/><path d="m232.003906 88.003906v-16h-16v16h-16c-4.417968 0-8 3.582032-8 8v96c0 4.417969 3.582032 8 8 8h16v16h16v-16h16v16h16v-16c13.304688-.011718 25.214844-8.25 29.914063-20.699218 4.699219-12.445313 1.207031-26.5-8.769531-35.300782 9.976562-8.800781 13.46875-22.859375 8.769531-35.304687-4.699219-12.445313-16.609375-20.6875-29.914063-20.695313v-16h-16v16zm32 96h-56v-32h56c8.835938 0 16 7.164063 16 16 0 8.835938-7.164062 16-16 16zm16-64c0 8.835938-7.164062 16-16 16h-56v-32h56c8.835938 0 16 7.164063 16 16zm0 0"/><path d="m24.003906 64.003906c10.132813-.042968 19.148438-6.445312 22.527344-16h22.160156l21.65625 21.65625 11.3125-11.3125-24-24c-1.5-1.5-3.535156-2.34375-5.65625-2.34375h-25.472656c-4.089844-11.476562-16.136719-18.058594-28.003906-15.296875-11.867188 2.761719-19.769532 13.988281-18.367188 26.089844 1.398438 12.105469 11.660156 21.226563 23.84375 21.207031zm0-32c4.417969 0 8 3.582032 8 8 0 4.417969-3.582031 8-8 8-4.417968 0-8-3.582031-8-8 0-4.417968 3.582032-8 8-8zm0 0"/><path d="m24.003906 136.003906c10.132813-.042968 19.148438-6.445312 22.527344-16h33.472656v-16h-33.472656c-4.089844-11.476562-16.136719-18.058594-28.003906-15.296875-11.867188 2.761719-19.769532 13.988281-18.367188 26.089844 1.398438 12.105469 11.660156 21.226563 23.84375 21.207031zm0-32c4.417969 0 8 3.582032 8 8 0 4.417969-3.582031 8-8 8-4.417968 0-8-3.582031-8-8 0-4.417968 3.582032-8 8-8zm0 0"/><path d="m24.003906 200.003906c10.132813-.042968 19.148438-6.445312 22.527344-16h33.472656v-16h-33.472656c-4.089844-11.476562-16.136719-18.058594-28.003906-15.296875-11.867188 2.761719-19.769532 13.988281-18.367188 26.089844 1.398438 12.105469 11.660156 21.226563 23.84375 21.207031zm0-32c4.417969 0 8 3.582032 8 8 0 4.417969-3.582031 8-8 8-4.417968 0-8-3.582031-8-8 0-4.417968 3.582032-8 8-8zm0 0"/><path d="m24.003906 272.003906c10.132813-.042968 19.148438-6.445312 22.527344-16h25.472656c2.121094 0 4.15625-.84375 5.65625-2.34375l24-24-11.3125-11.3125-21.65625 21.65625h-22.160156c-4.089844-11.476562-16.136719-18.058594-28.003906-15.296875-11.867188 2.761719-19.769532 13.988281-18.367188 26.089844 1.398438 12.105469 11.660156 21.226563 23.84375 21.207031zm0-32c4.417969 0 8 3.582032 8 8 0 4.417969-3.582031 8-8 8-4.417968 0-8-3.582031-8-8 0-4.417968 3.582032-8 8-8zm0 0"/><path d="m456.003906.00390625c-10.136718.03906255-19.152344 6.44531275-22.527344 15.99999975h-25.472656c-2.121094 0-4.15625.84375-5.65625 2.34375l-24 24 11.3125 11.3125 21.65625-21.65625h22.160156c4.085938 11.476563 16.136719 18.058594 28 15.292969 11.867188-2.761719 19.769532-13.988281 18.371094-26.089844-1.402344-12.101562-11.660156-21.2265622-23.84375-21.20312475zm0 31.99999975c-4.417968 0-8-3.582031-8-8 0-4.417968 3.582032-8 8-8 4.417969 0 8 3.582032 8 8 0 4.417969-3.582031 8-8 8zm0 0"/><path d="m456.003906 72.003906c-10.136718.039063-19.152344 6.445313-22.527344 16h-33.472656v16h33.472656c4.085938 11.476563 16.136719 18.058594 28 15.292969 11.867188-2.761719 19.769532-13.988281 18.371094-26.089844-1.402344-12.101562-11.660156-21.226562-23.84375-21.203125zm0 32c-4.417968 0-8-3.582031-8-8 0-4.417968 3.582032-8 8-8 4.417969 0 8 3.582032 8 8 0 4.417969-3.582031 8-8 8zm0 0"/><path d="m456.003906 136.003906c-10.136718.039063-19.152344 6.445313-22.527344 16h-33.472656v16h33.472656c4.085938 11.476563 16.136719 18.058594 28 15.292969 11.867188-2.761719 19.769532-13.988281 18.371094-26.089844-1.402344-12.101562-11.660156-21.226562-23.84375-21.203125zm0 32c-4.417968 0-8-3.582031-8-8 0-4.417968 3.582032-8 8-8 4.417969 0 8 3.582032 8 8 0 4.417969-3.582031 8-8 8zm0 0"/><path d="m456.003906 208.003906c-10.136718.039063-19.152344 6.445313-22.527344 16h-22.160156l-21.65625-21.65625-11.3125 11.3125 24 24c1.5 1.5 3.535156 2.34375 5.65625 2.34375h25.472656c4.085938 11.476563 16.136719 18.058594 28 15.292969 11.867188-2.761719 19.769532-13.988281 18.371094-26.089844-1.402344-12.101562-11.660156-21.226562-23.84375-21.203125zm0 32c-4.417968 0-8-3.582031-8-8 0-4.417968 3.582032-8 8-8 4.417969 0 8 3.582032 8 8 0 4.417969-3.582031 8-8 8zm0 0"/></svg>